<?xml version="1.0" encoding="UTF-8"?>
<svg xmlns="http://www.w3.org/2000/svg" xmlns:xlink="http://www.w3.org/1999/xlink" viewBox="0 0 30 30" width="30px" height="30px">
<g id="surface87751711">
<path style=" stroke:none;fill-rule:nonzero;fill:rgb(0%,0%,0%);fill-opacity:1;" d="M 15 0.480469 C 6.980469 0.480469 0.480469 6.980469 0.480469 15 C 0.480469 23.019531 6.980469 29.519531 15 29.519531 C 23.019531 29.519531 29.519531 23.019531 29.519531 15 C 29.519531 6.980469 23.019531 0.480469 15 0.480469 Z M 23.117188 12.226562 L 13.96875 21.375 C 13.742188 21.601562 13.433594 21.726562 13.113281 21.726562 C 12.792969 21.726562 12.484375 21.601562 12.257812 21.375 L 8.078125 17.195312 C 7.605469 16.722656 7.605469 15.957031 8.078125 15.484375 C 8.550781 15.011719 9.316406 15.011719 9.789062 15.484375 L 13.113281 18.808594 L 21.40625 10.515625 C 21.878906 10.042969 22.640625 10.042969 23.117188 10.515625 C 23.589844 10.988281 23.589844 11.753906 23.117188 12.226562 Z M 23.117188 12.226562 "/>
</g>
</svg>
