<svg width="87" height="87" viewBox="0 0 87 87" fill="none" xmlns="http://www.w3.org/2000/svg">
<circle cx="43.5" cy="43.5" r="43.5" fill="#7E2323"/>
<path d="M26.44 64.24C25.4 64.7467 24.1067 65 22.56 65H21.2C18.88 65 17.0933 64.44 15.84 63.32C14.6133 62.1733 14 60.4667 14 58.2V43.8C14 41.5333 14.6133 39.84 15.84 38.72C17.0933 37.5733 18.88 37 21.2 37H22.56C24.88 37 26.6533 37.5733 27.88 38.72C29.1333 39.84 29.76 41.5333 29.76 43.8V58.2C29.76 59.7733 29.44 61.0667 28.8 62.08L31.8 65.08L29.52 67.36L26.44 64.24ZM26.28 43.04C26.28 42.2133 25.9733 41.5067 25.36 40.92C24.7467 40.3333 23.9467 40.04 22.96 40.04H20.8C19.8133 40.04 19.0133 40.3333 18.4 40.92C17.7867 41.5067 17.48 42.2133 17.48 43.04V58.96C17.48 59.7867 17.7867 60.4933 18.4 61.08C19.0133 61.6667 19.8133 61.96 20.8 61.96H22.96C23.9733 61.96 24.7733 61.7067 25.36 61.2C25.9733 60.6667 26.28 59.92 26.28 58.96V43.04Z" fill="white"/>
<path d="M34.7734 23.625V35H33.8047L27.2656 25.2812V35H26.3047V23.625H27.2656L33.8203 33.3438V23.625H34.7734ZM36.9453 30.9062V30.6484C36.9453 30.0339 37.0339 29.4661 37.2109 28.9453C37.388 28.4245 37.6406 27.974 37.9688 27.5938C38.3021 27.2135 38.7005 26.9193 39.1641 26.7109C39.6276 26.4974 40.1432 26.3906 40.7109 26.3906C41.2839 26.3906 41.8021 26.4974 42.2656 26.7109C42.7292 26.9193 43.1276 27.2135 43.4609 27.5938C43.7943 27.974 44.0495 28.4245 44.2266 28.9453C44.4036 29.4661 44.4922 30.0339 44.4922 30.6484V30.9062C44.4922 31.5208 44.4036 32.0885 44.2266 32.6094C44.0495 33.125 43.7943 33.5729 43.4609 33.9531C43.1328 34.3333 42.737 34.6302 42.2734 34.8438C41.8099 35.0521 41.2943 35.1562 40.7266 35.1562C40.1536 35.1562 39.6354 35.0521 39.1719 34.8438C38.7083 34.6302 38.3099 34.3333 37.9766 33.9531C37.6432 33.5729 37.388 33.125 37.2109 32.6094C37.0339 32.0885 36.9453 31.5208 36.9453 30.9062ZM37.875 30.6484V30.9062C37.875 31.3698 37.9375 31.8099 38.0625 32.2266C38.1875 32.638 38.3698 33.0052 38.6094 33.3281C38.849 33.6458 39.1458 33.8958 39.5 34.0781C39.8542 34.2604 40.263 34.3516 40.7266 34.3516C41.1849 34.3516 41.5885 34.2604 41.9375 34.0781C42.2917 33.8958 42.5885 33.6458 42.8281 33.3281C43.0677 33.0052 43.2474 32.638 43.3672 32.2266C43.4922 31.8099 43.5547 31.3698 43.5547 30.9062V30.6484C43.5547 30.1901 43.4922 29.7552 43.3672 29.3438C43.2474 28.9323 43.0651 28.5651 42.8203 28.2422C42.5807 27.9193 42.2839 27.6641 41.9297 27.4766C41.5755 27.2891 41.1693 27.1953 40.7109 27.1953C40.2526 27.1953 39.8464 27.2891 39.4922 27.4766C39.1432 27.6641 38.8464 27.9193 38.6016 28.2422C38.362 28.5651 38.1797 28.9323 38.0547 29.3438C37.9349 29.7552 37.875 30.1901 37.875 30.6484ZM47.3594 27.9453V35H46.4297V26.5469H47.3359L47.3594 27.9453ZM50.3516 26.4844L50.3281 27.3438C50.224 27.3281 50.1224 27.3151 50.0234 27.3047C49.9245 27.2943 49.8177 27.2891 49.7031 27.2891C49.2969 27.2891 48.9401 27.3646 48.6328 27.5156C48.3307 27.6615 48.0755 27.8672 47.8672 28.1328C47.6589 28.3932 47.5 28.7005 47.3906 29.0547C47.2812 29.4036 47.2188 29.7786 47.2031 30.1797L46.8594 30.3125C46.8594 29.7604 46.9167 29.2474 47.0312 28.7734C47.1458 28.2995 47.3203 27.8854 47.5547 27.5312C47.7943 27.1719 48.0938 26.8932 48.4531 26.6953C48.8177 26.4922 49.2448 26.3906 49.7344 26.3906C49.8542 26.3906 49.9714 26.401 50.0859 26.4219C50.2057 26.4375 50.2943 26.4583 50.3516 26.4844ZM51.1484 30.9062V30.6484C51.1484 30.0339 51.237 29.4661 51.4141 28.9453C51.5911 28.4245 51.8438 27.974 52.1719 27.5938C52.5052 27.2135 52.9036 26.9193 53.3672 26.7109C53.8307 26.4974 54.3464 26.3906 54.9141 26.3906C55.487 26.3906 56.0052 26.4974 56.4688 26.7109C56.9323 26.9193 57.3307 27.2135 57.6641 27.5938C57.9974 27.974 58.2526 28.4245 58.4297 28.9453C58.6068 29.4661 58.6953 30.0339 58.6953 30.6484V30.9062C58.6953 31.5208 58.6068 32.0885 58.4297 32.6094C58.2526 33.125 57.9974 33.5729 57.6641 33.9531C57.3359 34.3333 56.9401 34.6302 56.4766 34.8438C56.013 35.0521 55.4974 35.1562 54.9297 35.1562C54.3568 35.1562 53.8385 35.0521 53.375 34.8438C52.9115 34.6302 52.513 34.3333 52.1797 33.9531C51.8464 33.5729 51.5911 33.125 51.4141 32.6094C51.237 32.0885 51.1484 31.5208 51.1484 30.9062ZM52.0781 30.6484V30.9062C52.0781 31.3698 52.1406 31.8099 52.2656 32.2266C52.3906 32.638 52.5729 33.0052 52.8125 33.3281C53.0521 33.6458 53.349 33.8958 53.7031 34.0781C54.0573 34.2604 54.4661 34.3516 54.9297 34.3516C55.388 34.3516 55.7917 34.2604 56.1406 34.0781C56.4948 33.8958 56.7917 33.6458 57.0312 33.3281C57.2708 33.0052 57.4505 32.638 57.5703 32.2266C57.6953 31.8099 57.7578 31.3698 57.7578 30.9062V30.6484C57.7578 30.1901 57.6953 29.7552 57.5703 29.3438C57.4505 28.9323 57.2682 28.5651 57.0234 28.2422C56.7839 27.9193 56.487 27.6641 56.1328 27.4766C55.7786 27.2891 55.3724 27.1953 54.9141 27.1953C54.4557 27.1953 54.0495 27.2891 53.6953 27.4766C53.3464 27.6641 53.0495 27.9193 52.8047 28.2422C52.5651 28.5651 52.3828 28.9323 52.2578 29.3438C52.138 29.7552 52.0781 30.1901 52.0781 30.6484ZM62.2344 35H61.3047V25.5C61.3047 24.9219 61.4036 24.4349 61.6016 24.0391C61.8047 23.6432 62.0911 23.3438 62.4609 23.1406C62.8359 22.9375 63.2812 22.8359 63.7969 22.8359C63.9583 22.8359 64.125 22.8464 64.2969 22.8672C64.4688 22.8828 64.6354 22.9167 64.7969 22.9688L64.7266 23.7578C64.5964 23.7214 64.4635 23.6979 64.3281 23.6875C64.1979 23.6719 64.0443 23.6641 63.8672 23.6641C63.5286 23.6641 63.237 23.737 62.9922 23.8828C62.7474 24.0234 62.5599 24.2292 62.4297 24.5C62.2995 24.7708 62.2344 25.1042 62.2344 25.5V35ZM64.25 26.5469V27.3125H59.9062V26.5469H64.25ZM67.5312 35H66.6016V25.5C66.6016 24.9219 66.7005 24.4349 66.8984 24.0391C67.1016 23.6432 67.388 23.3438 67.7578 23.1406C68.1328 22.9375 68.5781 22.8359 69.0938 22.8359C69.2552 22.8359 69.4219 22.8464 69.5938 22.8672C69.7656 22.8828 69.9323 22.9167 70.0938 22.9688L70.0234 23.7578C69.8932 23.7214 69.7604 23.6979 69.625 23.6875C69.4948 23.6719 69.3411 23.6641 69.1641 23.6641C68.8255 23.6641 68.5339 23.737 68.2891 23.8828C68.0443 24.0234 67.8568 24.2292 67.7266 24.5C67.5964 24.7708 67.5312 25.1042 67.5312 25.5V35ZM69.5469 26.5469V27.3125H65.2031V26.5469H69.5469Z" fill="white"/>
<path d="M39.6406 52.0469V45.5469H40.5781V54H39.6797L39.6406 52.0469ZM39.8125 50.4844L40.2969 50.4688C40.2969 51 40.2344 51.4896 40.1094 51.9375C39.9844 52.3854 39.7891 52.776 39.5234 53.1094C39.2578 53.4427 38.9141 53.7005 38.4922 53.8828C38.0703 54.0651 37.5625 54.1562 36.9688 54.1562C36.5573 54.1562 36.1797 54.099 35.8359 53.9844C35.4974 53.8646 35.2057 53.6771 34.9609 53.4219C34.7161 53.1667 34.526 52.8359 34.3906 52.4297C34.2604 52.0234 34.1953 51.5312 34.1953 50.9531V45.5469H35.125V50.9688C35.125 51.4219 35.1745 51.7995 35.2734 52.1016C35.3776 52.4036 35.5182 52.6458 35.6953 52.8281C35.8776 53.0104 36.0859 53.1406 36.3203 53.2188C36.5547 53.2969 36.8073 53.3359 37.0781 53.3359C37.7656 53.3359 38.3073 53.2031 38.7031 52.9375C39.1042 52.6719 39.388 52.3229 39.5547 51.8906C39.7266 51.4531 39.8125 50.9844 39.8125 50.4844ZM48.1641 52.4844V48.125C48.1641 47.724 48.0807 47.3776 47.9141 47.0859C47.7474 46.7943 47.5026 46.5703 47.1797 46.4141C46.8568 46.2578 46.4583 46.1797 45.9844 46.1797C45.5469 46.1797 45.1562 46.2578 44.8125 46.4141C44.474 46.5651 44.2057 46.7708 44.0078 47.0312C43.8151 47.2865 43.7188 47.5703 43.7188 47.8828L42.7812 47.875C42.7812 47.5573 42.8594 47.25 43.0156 46.9531C43.1719 46.6562 43.3932 46.3906 43.6797 46.1562C43.9661 45.9219 44.3073 45.737 44.7031 45.6016C45.1042 45.4609 45.5443 45.3906 46.0234 45.3906C46.6276 45.3906 47.1589 45.4922 47.6172 45.6953C48.0807 45.8984 48.4427 46.2031 48.7031 46.6094C48.9635 47.0156 49.0938 47.526 49.0938 48.1406V52.2266C49.0938 52.5182 49.1146 52.8203 49.1562 53.1328C49.2031 53.4453 49.2682 53.7031 49.3516 53.9062V54H48.3594C48.2969 53.8125 48.2474 53.5781 48.2109 53.2969C48.1797 53.0104 48.1641 52.7396 48.1641 52.4844ZM48.3828 49.0781L48.3984 49.7969H46.5625C46.0833 49.7969 45.6536 49.8411 45.2734 49.9297C44.8984 50.013 44.5807 50.138 44.3203 50.3047C44.0599 50.4661 43.8594 50.6615 43.7188 50.8906C43.5833 51.1198 43.5156 51.3802 43.5156 51.6719C43.5156 51.974 43.5911 52.25 43.7422 52.5C43.8984 52.75 44.1172 52.9505 44.3984 53.1016C44.6849 53.2474 45.0234 53.3203 45.4141 53.3203C45.9349 53.3203 46.3932 53.224 46.7891 53.0312C47.1901 52.8385 47.5208 52.5859 47.7812 52.2734C48.0417 51.9609 48.2161 51.6198 48.3047 51.25L48.7109 51.7891C48.6432 52.0495 48.5182 52.3177 48.3359 52.5938C48.1589 52.8646 47.9271 53.1198 47.6406 53.3594C47.3542 53.5938 47.0156 53.7865 46.625 53.9375C46.2396 54.0833 45.8021 54.1562 45.3125 54.1562C44.7604 54.1562 44.2786 54.0521 43.8672 53.8438C43.4609 53.6354 43.1432 53.3516 42.9141 52.9922C42.6901 52.6276 42.5781 52.2161 42.5781 51.7578C42.5781 51.3411 42.6667 50.9688 42.8438 50.6406C43.0208 50.3073 43.276 50.026 43.6094 49.7969C43.9479 49.5625 44.3542 49.3854 44.8281 49.2656C45.3073 49.1406 45.8438 49.0781 46.4375 49.0781H48.3828ZM52.6406 42V54H51.7109V42H52.6406ZM56.2344 45.5469V54H55.3047V45.5469H56.2344ZM55.1406 43.1016C55.1406 42.9245 55.1953 42.776 55.3047 42.6562C55.4193 42.5312 55.5755 42.4688 55.7734 42.4688C55.9714 42.4688 56.1276 42.5312 56.2422 42.6562C56.362 42.776 56.4219 42.9245 56.4219 43.1016C56.4219 43.2734 56.362 43.4219 56.2422 43.5469C56.1276 43.6667 55.9714 43.7266 55.7734 43.7266C55.5755 43.7266 55.4193 43.6667 55.3047 43.5469C55.1953 43.4219 55.1406 43.2734 55.1406 43.1016ZM61.9844 45.5469V46.3125H57.75V45.5469H61.9844ZM59.3047 43.375H60.2344V51.9453C60.2344 52.3359 60.2865 52.6302 60.3906 52.8281C60.4948 53.026 60.6302 53.1589 60.7969 53.2266C60.9635 53.2943 61.1432 53.3281 61.3359 53.3281C61.4766 53.3281 61.612 53.3203 61.7422 53.3047C61.8724 53.2839 61.9896 53.263 62.0938 53.2422L62.1328 54.0312C62.0182 54.0677 61.8698 54.0964 61.6875 54.1172C61.5052 54.1432 61.3229 54.1562 61.1406 54.1562C60.7812 54.1562 60.4635 54.0911 60.1875 53.9609C59.9115 53.8255 59.6953 53.5964 59.5391 53.2734C59.3828 52.9453 59.3047 52.5 59.3047 51.9375V43.375ZM66.4531 53.1562L69.0859 45.5469H70.0938L66.5156 55.3594C66.4427 55.5521 66.349 55.7656 66.2344 56C66.125 56.2344 65.9792 56.4583 65.7969 56.6719C65.6198 56.8906 65.3958 57.0677 65.125 57.2031C64.8594 57.3438 64.5339 57.4141 64.1484 57.4141C64.0495 57.4141 63.9219 57.401 63.7656 57.375C63.6146 57.3542 63.5052 57.3333 63.4375 57.3125L63.4297 56.5234C63.487 56.5391 63.5703 56.5521 63.6797 56.5625C63.7891 56.5729 63.8646 56.5781 63.9062 56.5781C64.2448 56.5781 64.5286 56.5208 64.7578 56.4062C64.9922 56.2917 65.1875 56.1198 65.3438 55.8906C65.5 55.6667 65.638 55.3854 65.7578 55.0469L66.4531 53.1562ZM63.9922 45.5469L66.6875 52.8047L66.9375 53.7812L66.2578 54.1641L62.9766 45.5469H63.9922Z" fill="white" fill-opacity="0.894737"/>
</svg>
